<svg id="Layer_1" data-name="Layer 1" xmlns="http://www.w3.org/2000/svg" viewBox="0 0 287 279.06"><defs><style>.cls-1{fill:#fff;}.cls-2{fill:none;stroke:#fff;stroke-miterlimit:10;}</style></defs><title>austin-logo</title><path class="cls-1" d="M573,369" transform="translate(-464 -290.11)"/><path class="cls-2" d="M573,369" transform="translate(-464 -290.11)"/><path class="cls-1" d="M572.33,370.33" transform="translate(-464 -290.11)"/><path class="cls-2" d="M572.33,370.33" transform="translate(-464 -290.11)"/><path class="cls-1" d="M563.67,371.67V371" transform="translate(-464 -290.11)"/><path class="cls-1" d="M565.66,371h0Z" transform="translate(-464 -290.11)"/><path class="cls-1" d="M563.82,371h.55a6.68,6.68,0,0,1,.68,0h-.4c-.77,0-.8,0-.16,0Z" transform="translate(-464 -290.11)"/><path class="cls-1" d="M562.28,371.1h0Z" transform="translate(-464 -290.11)"/><path class="cls-1" d="M561.73,371.16h0Z" transform="translate(-464 -290.11)"/><path class="cls-1" d="M560.64,371.17h0Z" transform="translate(-464 -290.11)"/><path class="cls-1" d="M562.28,371.1h0Z" transform="translate(-464 -290.11)"/><path class="cls-1" d="M566.22,371h0Z" transform="translate(-464 -290.11)"/><path class="cls-1" d="M561.47,371.08h0Z" transform="translate(-464 -290.11)"/><path class="cls-1" d="M561.32,371.06h0Z" transform="translate(-464 -290.11)"/><path class="cls-1" d="M562.8,371h0Z" transform="translate(-464 -290.11)"/><path class="cls-1" d="M561.29,371.09h0Z" transform="translate(-464 -290.11)"/><path class="cls-1" d="M567.62,371.64h0Z" transform="translate(-464 -290.11)"/><path class="cls-1" d="M563.45,371.67h0Z" transform="translate(-464 -290.11)"/><path class="cls-1" d="M559.56,371.19h0Z" transform="translate(-464 -290.11)"/><path class="cls-1" d="M560.18,371.36h0Z" transform="translate(-464 -290.11)"/><path class="cls-1" d="M566.11,371h0Z" transform="translate(-464 -290.11)"/><path class="cls-1" d="M562,371.36h0Z" transform="translate(-464 -290.11)"/><path class="cls-1" d="M560.06,371.23h0Z" transform="translate(-464 -290.11)"/><path class="cls-1" d="M561.26,371.2h0Z" transform="translate(-464 -290.11)"/><path class="cls-1" d="M561.25,371.25h0Z" transform="translate(-464 -290.11)"/><path class="cls-1" d="M561.26,371.26h0Z" transform="translate(-464 -290.11)"/><path class="cls-1" d="M567.22,371.59h-.76C567.06,371.59,567.27,371.6,567.22,371.59Z" transform="translate(-464 -290.11)"/><path class="cls-1" d="M565.74,371h0Z" transform="translate(-464 -290.11)"/><path class="cls-1" d="M567.91,371.25h0Z" transform="translate(-464 -290.11)"/><path class="cls-1" d="M567.1,371.47h0Z" transform="translate(-464 -290.11)"/><path class="cls-1" d="M567.91,371.26h0Z" transform="translate(-464 -290.11)"/><path class="cls-1" d="M566.45,371.59h0Z" transform="translate(-464 -290.11)"/><path class="cls-1" d="M568.46,371.61h-.63c.3,0-.52,0-.22,0H566.2c-1,0,2.57,0,1.21,0h-.14c.12,0-1.65,0-.88,0h.52c.91,0-.65,0-.65,0h.87c-.51,0,.13,0,.73,0h-.45c-.74,0-1.6,0-.66,0H567c.36,0-1.8,0-1,0h.15c.38,0-.42,0,.91,0H567c.56,0,.57,0,.33,0h.61c-.6,0,1,0-.07,0h-.56c-.42,0-.72,0-1.22,0h.53c-1.15,0,2.24,0,.64,0h.3c-1.29,0,.18,0-.67,0,2.26,0-.16,0,1.28,0h-.87a10.8,10.8,0,0,1,1.26,0c.14,0-2.76,0-1.49,0h1c-1.18,0,0,0-1,0h.14c.4,0-.37,0,.12,0-.93,0,.45,0-.86,0h.48c1.62,0-1.31,0,.77,0h0c-.56,0-1.72,0-1.4,0h.82c-.56,0,.12,0-.61,0H567c-.34,0-1,0-1,0h0s-.8,0-.43,0h-.35c.32,0-.48,0-.1,0h0c-1.59,0,.79,0,0,0h.62c-.41,0-.34,0-.94,0,2.33,0-1.25,0,.69,0h-.59s-1.52,0-.72,0h1.45c-2.1,0-.39,0-1.76,0h2.45c-.73,0,.58,0-.49,0h-.11c-1,0,1.21,0-.16,0h-1c.43,0,.35,0,0,0h-.11c-1.72,0,.27,0,.17,0h-1.51c-.26,0-.88,0-.7,0-.72,0,.94,0,0,0h-.07c.42,0,.91,0,2,0H562c1.37,0-.3,0,0,0h1.17s.34,0,.16,0h-.69c-.31,0,.58,0,.51,0h-.56c.88,0-.5,0-.12,0H562c.22,0,.55,0,.06,0s-.45,0-.37,0c-.26,0-.73,0,.08,0H560.6c-1.21,0,2.07,0,0,0h-.26c-.55,0,1.46,0,1.08,0h-.38c-.52,0,0,0-.37,0h1.45c-.55,0-1.3,0-.85,0h.18c-.36,0,.39,0-.56,0h.7c.94,0-1,0-.34,0h1c-1.07,0,.63,0-.09,0h-1.78c-.79,0,.91,0,.47,0h.3c.71,0,.1,0,.39,0h-.56c-.37,0,.8,0,.24,0h1.59c-1.85,0,.14,0-1.45,0h.2c-.55,0,1.7,0,1.08,0h-1.86c-.67,0,.73,0,.59,0h-.08c.93,0,1.38,0,1.36,0h-2.36c.85,0-.36,0-.22,0H562c.12,0,.09,0,0,0h-3.18c.66,0,.94,0,.69,0h.85c1,0-1.54,0-.57,0h-.58c.34,0,0,0,1.46,0h-.85c-.22,0,1.57,0,.67,0H560c.13,0,.84,0,.39,0H560c-.58,0,1.23,0,1.54,0H561c-1.43,0-.6,0-1.4,0h.89c-1.19,0-.87,0-.91,0h1.59c-2.31,0,.85,0-1.22,0h-.06c-.22,0-.32,0-.12,0h.62s-1.09,0,.06,0h-.61s-.85,0,.89,0h.75c-.57,0,1,0,.15,0h-.5c.43,0,.79,0,.32,0h-1.17l1.89,0h-1c-1.77,0,2.82,0,.55,0h.39c-1,0,.94,0-.65,0h1.07c.76,0-2.23,0-.78,0h4.62c.78,0-.21,0,1.12,0h.23c-1.47,0-.25,0-1.16,0h1.91Zm-2.55-.06h0Zm0,0h0Zm-5.84,0h0Z" transform="translate(-464 -290.11)"/><path class="cls-1" d="M561.16,371.56h0Z" transform="translate(-464 -290.11)"/><path class="cls-1" d="M562.41,371.1h0Z" transform="translate(-464 -290.11)"/><polygon class="cls-1" points="103.52 81.37 103.3 81.37 103.49 81.37 103.52 81.37"/><path class="cls-1" d="M565.31,371.07h0Z" transform="translate(-464 -290.11)"/><path class="cls-1" d="M565.5,371.06h0Z" transform="translate(-464 -290.11)"/><path class="cls-1" d="M565.91,371.05h0Z" transform="translate(-464 -290.11)"/><path class="cls-1" d="M566.91,371.2h0Z" transform="translate(-464 -290.11)"/><path class="cls-1" d="M564.93,371.15h.4C565.4,371.15,565.41,371.15,564.93,371.15Z" transform="translate(-464 -290.11)"/><path class="cls-1" d="M567.92,371.25h0Z" transform="translate(-464 -290.11)"/><path class="cls-1" d="M565.32,371.16h0Z" transform="translate(-464 -290.11)"/><path class="cls-1" d="M566.3,371h0Z" transform="translate(-464 -290.11)"/><path class="cls-1" d="M566.2,371h0Z" transform="translate(-464 -290.11)"/><path class="cls-1" d="M565.88,371h0Z" transform="translate(-464 -290.11)"/><path class="cls-1" d="M565.91,371h0Z" transform="translate(-464 -290.11)"/><path class="cls-1" d="M566,371a3.71,3.71,0,0,0,.46,0h-.25C566.67,371,565.48,371,566,371Z" transform="translate(-464 -290.11)"/><path class="cls-1" d="M562.22,371h0Z" transform="translate(-464 -290.11)"/><path class="cls-1" d="M561.74,371.05h0Z" transform="translate(-464 -290.11)"/><path class="cls-1" d="M561.74,371.12h0Z" transform="translate(-464 -290.11)"/><polygon class="cls-1" points="101.71 81.03 102.18 81.02 101.48 81.02 101.71 81.03"/><polygon class="cls-1" points="96.24 81.03 96.13 81.03 96.41 81.03 96.24 81.03"/><path class="cls-1" d="M560.51,371.26h0Z" transform="translate(-464 -290.11)"/><path class="cls-1" d="M561.48,371.31h0Z" transform="translate(-464 -290.11)"/><polygon class="cls-1" points="95.94 81.35 95.62 81.35 95.88 81.35 95.94 81.35"/><rect class="cls-1" x="83.5" y="76.89" width="114" height="7"/><rect class="cls-1" x="549.5" y="424.5" width="114" height="7" transform="translate(570.5 -468.61) rotate(90)"/><path class="cls-1" d="M610.3,297l-.09-.12c-.65-1-1.13-2.12-1.72-3.17l-.18-.35a9.26,9.26,0,0,1-.58-.86c-.2.45-.43.9-.68,1.37-.53,1-1,1.9-1.55,2.8a3.81,3.81,0,0,1-.31.56L575,357l3.29,1.66,29.59-58.56L637,359l3.17-1.57Z" transform="translate(-464 -290.11)"/><path class="cls-1" d="M523.12,425.24l2.33-1.78-39.84-52.14,37.23-.32a4.92,4.92,0,0,1,0-.86c0-.27-.07-.54-.11-.81a8.63,8.63,0,0,1,.1-1c0-.25-.08-.49-.1-.74v-.12l-38.86.34-.14,0c-1.2.15-2.41.09-3.61.16l-.39,0a9.67,9.67,0,0,1-1,.15c.31.37.62.78.93,1.21.66.9,1.27,1.73,1.85,2.61a3.77,3.77,0,0,1,.37.52l40.33,52.79Z" transform="translate(-464 -290.11)"/><path class="cls-1" d="M730.06,368.43c-1.12-.05-2.15-.08-3.2-.17a4.44,4.44,0,0,1-.63,0l-32.88-.61a4.39,4.39,0,0,1,.07.61v.7a2.87,2.87,0,0,1,0,.41c0,.37-.06.74-.09,1.11a6.12,6.12,0,0,1,0,.86l31.51.58L685,423h4.48l39.2-50.28a.83.83,0,0,0,.07-.13c.63-1,1.42-1.94,2.11-2.93l.24-.31a7.84,7.84,0,0,1,.52-.9C731.1,368.47,730.59,368.46,730.06,368.43Z" transform="translate(-464 -290.11)"/><rect class="cls-1" x="517.5" y="375.26" width="7.05" height="198.07" transform="translate(-198.32 -472.49) rotate(26.44)"/><path class="cls-1" d="M644.49,569.07l-64.9-83.53a83.79,83.79,0,0,1-9.11-.11L635.42,569C638.44,569,641.47,569,644.49,569.07Z" transform="translate(-464 -290.11)"/><rect class="cls-1" x="689.77" y="371.79" width="6.79" height="202.2" transform="translate(1061.52 288.97) rotate(152.97)"/><rect class="cls-1" x="474.5" y="550.5" width="7" height="28" transform="translate(578.5 -203.61) rotate(90)"/><rect class="cls-1" x="734" y="550" width="7" height="27" transform="translate(837 -464.11) rotate(90)"/><path class="cls-1" d="M577.23,569.13,641.9,486a41.59,41.59,0,0,0-8.14-.76L568.6,569l.8.17A53.81,53.81,0,0,1,577.23,569.13Z" transform="translate(-464 -290.11)"/><polygon class="cls-1" points="147.17 8.08 144.02 14.52 143.29 16.01 116.76 70.21 110.39 66.99 139.29 7.93 140.05 6.38 143.18 0 144.74 3.17 147.17 8.08"/><polygon class="cls-1" points="176.87 68.13 170.59 71.23 143.43 16.29 143.29 16.01 139.53 8.41 139.29 7.93 140.05 6.38 143.18 0 144.74 3.17 147.17 8.08 147.34 8.42 176.87 68.13"/><path class="cls-1" d="M530.23,425l0-.06-39.59-51.86-5.3-6.95-1.44,0-4.23,0-4.17.05,1.13,1.48.25.32,1.67,2.19.87,1.15a3.88,3.88,0,0,1,.61.79l.48.63a4.81,4.81,0,0,1,.44.57l39.69,52Q525.45,425.06,530.23,425Z" transform="translate(-464 -290.11)"/><path class="cls-1" d="M486.5,369.59l-.23-.3-2.33-3.13-4.23,0L479,368.9l-.37,1.35,0,.09a4.92,4.92,0,0,1,.51.69,4.79,4.79,0,0,1,1.17,1.48,4.57,4.57,0,0,1,.62.7l8.25-.1Z" transform="translate(-464 -290.11)"/><polygon class="cls-1" points="272.98 76.11 270.77 79 267.86 82.82 267.35 83.49 267.11 83.8 229.69 132.89 220.2 132.89 219.88 132.56 257.72 82.94 258.17 82.35 258.37 82.09 263.11 75.87 270.85 75.78 272.98 76.11"/><path class="cls-1" d="M527.65,365.66l-42.27.48-1.44,0-4.23,0L479,368.9l-.37,1.35,0,.09a4.92,4.92,0,0,1,.51.69,4.79,4.79,0,0,1,1.17,1.48,4.57,4.57,0,0,1,.62.7l8.25-.1,1.56,0,37.07-.42Z" transform="translate(-464 -290.11)"/><polygon class="cls-1" points="272.98 76.11 270.77 79 267.86 82.82 257.72 82.94 229.19 83.26 228.88 83.27 220.36 83.37 219.82 83.38 218.74 82.02 214.3 76.43 217.85 76.39 223.35 76.33 223.74 76.32 263.11 75.87 270.85 75.78 272.98 76.11"/></svg>